<?xml version="1.0" standalone="no"?>
<!DOCTYPE svg PUBLIC "-//W3C//DTD SVG 20010904//EN"
 "http://www.w3.org/TR/2001/REC-SVG-20010904/DTD/svg10.dtd">
<svg version="1.0" xmlns="http://www.w3.org/2000/svg"
 width="100.000000pt" height="100.000000pt" viewBox="0 0 100.000000 100.000000"
 preserveAspectRatio="xMidYMid meet">
<metadata>
Created by potrace 1.14, written by Peter Selinger 2001-2017
</metadata>
<g transform="translate(0.000000,100.000000) scale(0.100000,-0.100000)"
fill="#000000" stroke="none">
<path d="M395 927 c-177 -54 -285 -209 -273 -391 6 -88 39 -163 100 -230 l45
-50 -54 -80 c-50 -76 -63 -105 -45 -107 10 -1 600 -1 635 0 20 1 27 6 27 21 0
19 -8 20 -305 22 l-304 3 41 61 41 60 61 -24 c112 -45 256 -26 353 47 238 181
194 538 -82 656 -51 21 -187 28 -240 12z m238 -57 c175 -78 248 -286 161 -458
-18 -36 -31 -51 -41 -48 -8 4 -24 6 -35 6 -19 0 -18 2 6 30 40 48 64 163 37
179 -7 4 -31 6 -54 4 -23 -2 -68 -5 -100 -6 -60 -2 -78 -14 -70 -47 4 -15 1
-18 -16 -13 -24 6 -26 14 -9 31 9 9 9 16 -4 28 -15 15 -17 14 -33 -10 -16 -23
-24 -27 -64 -25 -25 1 -67 -1 -93 -5 -39 -7 -49 -5 -54 8 -7 19 -44 22 -44 3
0 -8 11 -24 25 -37 13 -12 22 -27 18 -33 -3 -6 -5 -27 -5 -47 2 -33 -1 -38
-24 -43 -23 -4 -28 1 -47 42 -16 36 -21 66 -21 136 0 79 3 97 26 141 49 93
112 148 208 181 52 18 175 9 233 -17z m10 -343 c8 4 8 1 -1 -9 -10 -12 -10
-18 2 -27 18 -15 30 1 21 29 -6 17 -2 20 30 20 36 0 36 -1 30 -32 -12 -55 -36
-98 -70 -123 -40 -31 -107 -55 -159 -57 -42 -2 -116 9 -116 17 0 3 20 36 45
75 l44 69 38 -13 c40 -14 98 -15 110 -2 5 4 -2 16 -14 26 -32 25 -30 42 3 30
14 -6 31 -7 37 -3z m-223 -36 c0 -5 -64 -106 -77 -121 -11 -12 -43 45 -43 74
0 32 15 46 60 58 18 5 60 -2 60 -11z m-116 -144 c11 -11 11 -16 1 -31 -11 -15
-16 -15 -34 -4 -26 16 -27 35 -3 41 9 3 18 5 20 6 2 0 9 -5 16 -12z m408 -17
c17 0 18 -2 8 -16 -25 -29 -46 -34 -70 -17 -22 16 -22 17 -4 30 10 7 25 11 32
8 8 -3 23 -5 34 -5z m-287 -40 c35 -8 76 -6 122 4 24 6 39 3 57 -11 14 -10 26
-21 26 -24 0 -12 -82 -30 -138 -30 -49 0 -121 17 -153 36 -5 4 -5 14 2 26 7
15 16 18 32 13 12 -4 36 -10 52 -14z"/>
</g>
</svg>
